<svg width="36" height="28" viewBox="0 0 36 28" fill="none" xmlns="http://www.w3.org/2000/svg">
<path d="M0.400024 24.4C3.46669 22.0667 5.63336 19.8667 6.90002 17.8C8.23336 15.6667 8.90002 13.3333 8.90002 10.8C8.03336 11.3333 7.03336 11.6 5.90002 11.6C4.36669 11.6 3.10002 11.1 2.10002 10.1C1.16669 9.03333 0.700025 7.7 0.700025 6.1C0.700025 4.3 1.30002 2.83333 2.50002 1.7C3.76669 0.566666 5.43336 0 7.50003 0C12.2334 0 14.6 3.13333 14.6 9.4C14.6 11.1333 14.4 12.7 14 14.1C13.6 15.5 12.9334 16.9 12 18.3C11.1334 19.6333 9.93336 21.0333 8.40002 22.5C6.86669 23.9 4.96669 25.4333 2.70003 27.1L0.400024 24.4Z" fill="#C6A564"/>
<path d="M21.7906 24.4C24.8573 22.0667 27.024 19.8667 28.2907 17.8C29.624 15.6667 30.2906 13.3333 30.2906 10.8C29.424 11.3333 28.424 11.6 27.2907 11.6C25.7573 11.6 24.4906 11.1 23.4906 10.1C22.5573 9.03333 22.0907 7.7 22.0907 6.1C22.0907 4.3 22.6906 2.83333 23.8906 1.7C25.1573 0.566666 26.824 0 28.8906 0C33.624 0 35.9907 3.13333 35.9907 9.4C35.9907 11.1333 35.7906 12.7 35.3906 14.1C34.9906 15.5 34.324 16.9 33.3906 18.3C32.524 19.6333 31.324 21.0333 29.7906 22.5C28.2573 23.9 26.3573 25.4333 24.0907 27.1L21.7906 24.4Z" fill="#C6A564"/>
</svg>
