<svg width="18" height="18" viewBox="0 0 18 18" fill="none" xmlns="http://www.w3.org/2000/svg">
<path fill-rule="evenodd" clip-rule="evenodd" d="M0.5 0.583333C0.5 0.428624 0.561458 0.280251 0.670854 0.170854C0.780251 0.0614581 0.928624 0 1.08333 0H2.83333C2.96345 3.59467e-05 3.08983 0.0435758 3.19235 0.123696C3.29488 0.203815 3.36768 0.315915 3.39917 0.442167L3.87167 2.33333H17.4167C17.5023 2.33341 17.5869 2.35235 17.6644 2.38881C17.7419 2.42527 17.8104 2.47834 17.8651 2.54427C17.9198 2.6102 17.9593 2.68736 17.9808 2.77027C18.0023 2.85318 18.0053 2.93981 17.9895 3.024L16.2395 12.3573C16.2145 12.491 16.1435 12.6117 16.0389 12.6987C15.9343 12.7856 15.8027 12.8332 15.6667 12.8333H5.16667C5.03067 12.8332 4.89899 12.7856 4.7944 12.6987C4.6898 12.6117 4.61886 12.491 4.59383 12.3573L2.845 3.0415L2.37833 1.16667H1.08333C0.928624 1.16667 0.780251 1.10521 0.670854 0.995812C0.561458 0.886416 0.5 0.738043 0.5 0.583333ZM4.119 3.5L5.65083 11.6667H15.1825L16.7143 3.5H4.119ZM6.33333 12.8333C5.7145 12.8333 5.121 13.0792 4.68342 13.5168C4.24583 13.9543 4 14.5478 4 15.1667C4 15.7855 4.24583 16.379 4.68342 16.8166C5.121 17.2542 5.7145 17.5 6.33333 17.5C6.95217 17.5 7.54566 17.2542 7.98325 16.8166C8.42083 16.379 8.66667 15.7855 8.66667 15.1667C8.66667 14.5478 8.42083 13.9543 7.98325 13.5168C7.54566 13.0792 6.95217 12.8333 6.33333 12.8333ZM14.5 12.8333C13.8812 12.8333 13.2877 13.0792 12.8501 13.5168C12.4125 13.9543 12.1667 14.5478 12.1667 15.1667C12.1667 15.7855 12.4125 16.379 12.8501 16.8166C13.2877 17.2542 13.8812 17.5 14.5 17.5C15.1188 17.5 15.7123 17.2542 16.1499 16.8166C16.5875 16.379 16.8333 15.7855 16.8333 15.1667C16.8333 14.5478 16.5875 13.9543 16.1499 13.5168C15.7123 13.0792 15.1188 12.8333 14.5 12.8333ZM6.33333 14C6.02391 14 5.72717 14.1229 5.50838 14.3417C5.28958 14.5605 5.16667 14.8572 5.16667 15.1667C5.16667 15.4761 5.28958 15.7728 5.50838 15.9916C5.72717 16.2104 6.02391 16.3333 6.33333 16.3333C6.64275 16.3333 6.9395 16.2104 7.15829 15.9916C7.37708 15.7728 7.5 15.4761 7.5 15.1667C7.5 14.8572 7.37708 14.5605 7.15829 14.3417C6.9395 14.1229 6.64275 14 6.33333 14ZM14.5 14C14.1906 14 13.8938 14.1229 13.675 14.3417C13.4563 14.5605 13.3333 14.8572 13.3333 15.1667C13.3333 15.4761 13.4563 15.7728 13.675 15.9916C13.8938 16.2104 14.1906 16.3333 14.5 16.3333C14.8094 16.3333 15.1062 16.2104 15.325 15.9916C15.5438 15.7728 15.6667 15.4761 15.6667 15.1667C15.6667 14.8572 15.5438 14.5605 15.325 14.3417C15.1062 14.1229 14.8094 14 14.5 14Z" fill="#C6A564"/>
</svg>
